PathFileType	4	(X/Y/Z)	c:/Users/goper/Files/vsCode/490R/osim_files/C03/C03_Static.trc
DataRate	CameraRate	NumFrames	NumMarkers	Units                	OrigDataRate	OrigDataStartFrame	OrigNumFrames
250.00	250.00	10	36	mm	250.0	770	1538
                Frame#	Time	LPSIS			LASIS			LTH1			LTH2			LTH3			LTH4			LLFE			LMFE			LSH1			LSH2			LSH3			LSH4			LLMAL			LMMAL			LCAL			LMTP5			LTOE			LMTP1			RPSIS			RASIS			RTH1			RTH2			RTH3			RTH4			RLFE			RMFE			RSH1			RSH2			RSH3			RSH4			RLMAL			RMMAL			RCAL			RMTP1			RTOE			RMTP5		
		X1	Y1	Z1	X2	Y2	Z2	X3	Y3	Z3	X4	Y4	Z4	X5	Y5	Z5	X6	Y6	Z6	X7	Y7	Z7	X8	Y8	Z8	X9	Y9	Z9	X10	Y10	Z10	X11	Y11	Z11	X12	Y12	Z12	X13	Y13	Z13	X14	Y14	Z14	X15	Y15	Z15	X16	Y16	Z16	X17	Y17	Z17	X18	Y18	Z18	X19	Y19	Z19	X20	Y20	Z20	X21	Y21	Z21	X22	Y22	Z22	X23	Y23	Z23	X24	Y24	Z24	X25	Y25	Z25	X26	Y26	Z26	X27	Y27	Z27	X28	Y28	Z28	X29	Y29	Z29	X30	Y30	Z30	X31	Y31	Z31	X32	Y32	Z32	X33	Y33	Z33	X34	Y34	Z34	X35	Y35	Z35	X36	Y36	Z36

770	3.07600	-395.17755	1038.80786	357.67413	-209.02173	970.29388	349.38120	-346.54144	641.72388	279.41296	-346.71121	579.65302	283.47211	-271.35086	636.58856	289.21927	-281.21759	575.87360	292.80444	-328.89676	487.49670	292.43558	-345.76562	477.93542	403.80386	-398.44833	309.42236	274.22495	-393.74030	263.21384	277.21295	-337.49991	313.43649	272.80356	-341.17432	265.57654	275.06323	-352.87979	99.53155	295.42325	-335.15323	108.24562	375.78275	-419.71375	63.26146	330.51212	-219.48177	50.97424	270.26276	-187.82259	67.31508	323.72247	-209.63173	54.58202	363.98315	-412.74390	1033.31201	466.70212	-249.52341	991.19141	555.09277	-386.84015	617.56201	574.87738	-388.92691	555.69885	565.25128	-328.43701	617.42120	601.86804	-320.38339	556.06256	598.64154	-324.56439	487.65610	585.38080	-324.87234	495.07916	470.32379	-420.72006	307.80612	597.13739	-418.08521	260.79333	599.43988	-361.58578	303.20367	615.73291	-368.14304	260.45392	615.99677	-375.76715	101.83579	602.43713	-354.24109	101.18307	523.80219	-441.86432	63.82318	557.04852	-233.87074	41.76122	542.34436	-210.51837	67.47034	589.17883	-270.95157	38.46334	646.58850
771	3.08000	-395.19083	1038.78931	357.64191	-209.05388	970.27008	349.33173	-346.52112	641.69763	279.35458	-347.66940	579.30896	283.81870	-271.36481	636.57275	289.21362	-281.25122	575.83905	292.78824	-328.92166	487.46780	292.40826	-345.78180	477.91693	403.78293	-398.46118	309.40613	274.20319	-393.73361	263.19586	277.18808	-337.50348	313.39938	272.80435	-341.18820	265.53055	275.07346	-352.88016	99.50507	295.41711	-335.14725	108.23778	375.77405	-419.73044	63.27178	330.50592	-219.47818	50.94623	270.25098	-187.81761	67.30485	323.72159	-209.62570	54.55222	363.98080	-412.79453	1033.34241	466.66440	-249.53969	991.15948	555.04547	-386.87625	617.52905	574.85364	-388.94476	555.69623	565.15869	-328.48132	617.41980	601.83411	-320.39011	556.05182	598.60583	-324.55804	487.64017	585.35406	-324.90240	495.03067	470.30557	-420.74850	307.78693	597.12616	-418.08313	260.78421	599.42511	-361.61285	303.19626	615.70990	-368.15704	260.43384	615.97681	-375.77432	101.82258	602.43195	-354.22409	101.14669	523.80981	-441.86124	63.79504	557.02441	-233.89642	41.71323	542.34473	-210.52591	67.45122	589.17432	-270.95972	38.45088	646.57745
772	3.08400	-395.23099	1038.79346	357.61386	-208.98073	970.13794	349.33789	-346.59903	641.66217	279.32623	-347.44012	579.41687	283.77881	-271.36972	636.53021	289.17383	-281.26453	575.81305	292.76697	-328.93741	487.43918	292.39212	-345.79312	477.90253	403.76053	-398.46439	309.39386	274.18723	-393.75574	263.17371	277.16467	-337.54550	313.36249	272.78918	-341.22266	265.49454	275.08127	-352.88983	99.48985	295.41669	-335.17740	108.24467	375.76364	-419.78900	63.30881	330.46082	-219.50911	50.95782	270.22662	-187.83362	67.29240	323.71472	-209.64139	54.55030	363.96201	-412.84344	1033.37183	466.60977	-249.55965	991.17279	554.99133	-386.96725	617.59247	574.80450	-389.00696	555.76068	565.08502	-328.48291	617.43384	601.81268	-320.41168	556.06543	598.58954	-324.58270	487.63934	585.32562	-324.94431	494.99838	470.29163	-420.78592	307.81400	597.09595	-418.14624	260.79111	599.39404	-361.62158	303.19720	615.68054	-368.15024	260.44128	615.95453	-375.79639	101.82253	602.41528	-354.33200	101.09912	523.71191	-441.90640	63.82035	557.00299	-233.89969	41.68588	542.35834	-210.53769	67.41911	589.17828	-270.97049	38.46366	646.55475
773	3.08800	-395.28351	1038.77747	357.57047	-208.99989	970.16571	349.25351	-346.58075	641.65094	279.28394	-347.48337	579.38434	283.74844	-271.42099	636.50360	289.12048	-281.31235	575.78021	292.72656	-328.95660	487.42529	292.34964	-345.81424	477.92047	403.72595	-398.48111	309.37564	274.17331	-393.73764	263.15308	277.13428	-337.53531	313.34842	272.77527	-341.22128	265.47852	275.05548	-352.89246	99.46465	295.42130	-335.14960	108.27730	375.70691	-419.83456	63.35708	330.39288	-219.49577	50.98027	270.19421	-187.83122	67.29488	323.68335	-209.61194	54.58398	363.91678	-412.90649	1033.40771	466.55148	-249.53346	991.18097	554.91614	-386.99097	617.62427	574.73254	-389.05646	555.90527	564.93079	-328.48743	617.46497	601.75671	-320.39606	556.11310	598.53027	-324.58203	487.65717	585.27997	-324.95825	494.96964	470.23932	-420.82785	307.85095	597.04547	-418.22165	260.84131	599.32654	-361.59265	303.23987	615.62671	-368.12476	260.44769	615.91248	-375.84137	101.84430	602.37921	-354.32935	101.07484	523.69647	-441.88898	63.84814	556.96191	-233.91255	41.65506	542.35229	-210.52325	67.40708	589.15277	-270.94736	38.48049	646.52319
774	3.09200	-395.33243	1038.77502	357.54742	-209.20566	970.22699	349.17560	-346.60696	641.62238	279.23990	-347.51212	579.37256	283.73251	-271.46875	636.47412	289.08932	-281.32031	575.75177	292.69757	-328.98422	487.39478	292.34311	-345.81332	477.91342	403.69601	-398.44669	309.37326	274.15170	-393.52707	263.20700	277.01947	-337.57977	313.30673	272.76828	-341.24454	265.45462	275.04904	-352.90311	99.44963	295.41003	-335.10794	108.30079	375.68765	-419.85690	63.41438	330.35455	-219.49434	50.99548	270.17029	-187.83598	67.31969	323.66873	-209.58929	54.62460	363.88623	-412.93970	1033.44678	466.50214	-249.50284	991.21722	554.85242	-387.06161	617.65552	574.68182	-389.08817	555.98730	564.77740	-328.45068	617.49359	601.72504	-319.85852	556.25537	598.71100	-324.56522	487.66742	585.23529	-324.97360	494.95026	470.21213	-420.82184	307.87390	597.02832	-418.21033	260.86810	599.32196	-361.56961	303.28040	615.60278	-368.09354	260.47952	615.89563	-375.81436	101.86815	602.37207	-354.33466	101.07094	523.70587	-441.89612	63.91767	556.90405	-233.92802	41.62743	542.34277	-210.50656	67.40133	589.14899	-270.92874	38.49662	646.50348
775	3.09600	-395.34177	1038.79028	357.52664	-209.25407	970.21313	349.14221	-346.62857	641.63092	279.23181	-347.50851	579.36511	283.71274	-271.49228	636.47833	289.06973	-281.36441	575.73712	292.66940	-329.00427	487.38040	292.32098	-345.81659	477.93283	403.69208	-398.44281	309.37494	274.14124	-393.53235	263.20419	277.02609	-337.57147	313.32175	272.76538	-341.23563	265.43549	275.04889	-352.90671	99.44838	295.41943	-335.10330	108.32872	375.67548	-419.85242	63.44318	330.32016	-219.48761	51.00150	270.17706	-187.84953	67.31982	323.64413	-209.54544	54.65894	363.87897	-412.96149	1033.49536	466.47168	-249.46867	991.23694	554.78729	-387.02795	617.67871	574.64062	-389.07440	556.07208	564.75574	-328.44940	617.50781	601.69464	-320.38583	556.15521	598.47351	-324.53473	487.69479	585.20941	-324.99005	494.93625	470.19818	-420.81754	307.91592	597.00610	-418.19797	260.88531	599.30658	-361.56030	303.29608	615.58301	-368.05539	260.49136	615.88257	-375.79559	101.88617	602.35669	-354.32761	101.05247	523.70422	-441.86072	63.93471	556.88879	-233.94658	41.60797	542.34625	-210.51633	67.40759	589.14484	-270.88113	38.52956	646.49213
776	3.10000	-395.38000	1038.82434	357.48727	-209.28944	970.24036	349.09467	-346.65610	641.63470	279.20905	-346.85278	579.57947	283.32278	-271.51834	636.47034	289.04044	-281.36349	575.76965	292.63589	-329.02121	487.40369	292.30243	-345.83539	477.94888	403.67877	-398.46222	309.37662	274.13303	-393.55042	263.22104	277.04144	-337.59818	313.32318	272.75201	-341.26627	265.44974	275.04538	-352.90659	99.46394	295.41693	-335.06741	108.34305	375.67288	-419.82544	63.45473	330.31601	-219.46422	51.03915	270.17346	-187.80072	67.37549	323.62631	-209.52321	54.69548	363.85880	-412.97916	1033.55188	466.44501	-249.44693	991.27081	554.72992	-387.00803	617.68622	574.61652	-389.09592	556.13513	564.61963	-328.43277	617.53735	601.65710	-319.78717	556.31647	598.67297	-324.50259	487.72119	585.17206	-324.95050	494.96393	470.18365	-420.81940	307.93552	596.98145	-418.19403	260.93005	599.28571	-361.52405	303.34122	615.55817	-368.03317	260.53149	615.85645	-375.79053	101.90147	602.34827	-354.24109	101.10484	523.80518	-441.85947	63.93029	556.92041	-233.92538	41.64674	542.34888	-210.50258	67.43167	589.13702	-270.86621	38.56636	646.47113
777	3.10400	-395.42981	1038.83948	357.44925	-209.31783	970.25049	349.04471	-346.67056	641.63678	279.17868	-347.58240	579.35870	283.67609	-271.51767	636.48322	289.00305	-281.36725	575.78693	292.62039	-329.02225	487.41901	292.28333	-345.84146	477.95969	403.64728	-398.47281	309.37643	274.12766	-393.78775	263.14948	277.14804	-337.57919	313.34726	272.73361	-341.26031	265.46027	275.03189	-352.88937	99.48403	295.41672	-335.06302	108.37502	375.65771	-419.82745	63.47716	330.31354	-219.45204	51.05928	270.17209	-187.80852	67.38770	323.61633	-209.50980	54.70402	363.86359	-413.00235	1033.57507	466.42886	-249.42198	991.28320	554.67633	-387.05643	617.72064	574.59869	-389.11179	556.11749	564.55994	-328.42355	617.54858	601.63525	-320.33746	556.18756	598.40338	-324.48788	487.74084	585.15289	-324.91815	494.98105	470.15753	-420.83652	307.96188	596.96863	-418.19971	260.94125	599.27100	-361.53400	303.34174	615.54834	-368.05444	260.55338	615.84662	-375.78995	101.92094	602.34473	-354.21555	101.13361	523.79297	-441.87439	63.98178	556.91602	-233.89673	41.65933	542.34979	-210.50652	67.44258	589.15570	-270.85181	38.57619	646.47766
778	3.10800	-395.46368	1038.86121	357.43597	-209.36501	970.24554	348.99399	-346.72366	641.65863	279.18759	-346.89178	579.61157	283.27548	-271.52353	636.51099	288.98935	-281.37216	575.80096	292.60214	-329.02954	487.44351	292.27219	-345.85605	477.97482	403.63708	-398.47324	309.39349	274.13269	-393.77023	263.18381	277.13141	-337.59570	313.36765	272.73111	-341.23956	265.48764	275.03775	-352.88803	99.50530	295.43460	-335.08401	108.37988	375.67499	-419.85309	63.50735	330.32306	-219.45535	51.07924	270.17648	-187.79393	67.40385	323.63959	-209.55464	54.70391	363.88834	-412.99689	1033.59607	466.41040	-249.44179	991.29224	554.64575	-387.08826	617.75952	574.58307	-389.14642	556.12750	564.59808	-328.47235	617.55518	601.61908	-319.78961	556.31207	598.62775	-324.52826	487.75198	585.13910	-324.93597	495.00491	470.15564	-420.84213	307.98230	596.96259	-418.20886	260.96933	599.27985	-361.54337	303.35080	615.55688	-368.07620	260.56223	615.86230	-375.78659	101.94466	602.35986	-354.20190	101.15135	523.80396	-441.87338	64.00171	556.91827	-233.87958	41.70833	542.34497	-210.50098	67.45129	589.15765	-270.87967	38.58158	646.49561
779	3.11200	-395.49536	1038.88342	357.39706	-209.40369	970.25970	348.94363	-346.73770	641.65137	279.15372	-347.60281	579.40649	283.60629	-271.55331	636.50580	288.93457	-281.39505	575.81110	292.55960	-329.01801	487.46350	292.23196	-345.84280	477.97690	403.61566	-398.49332	309.38794	274.13205	-393.75781	263.19287	277.12323	-337.58273	313.38641	272.71069	-341.21985	265.48999	275.02063	-352.88397	99.52069	295.42371	-335.07733	108.39017	375.67453	-419.82498	63.51633	330.34097	-219.44124	51.09985	270.17374	-187.79918	67.41450	323.64737	-209.55562	54.69609	363.89642	-413.02161	1033.59949	466.40945	-249.45287	991.27423	554.59943	-387.05630	617.75360	574.57623	-389.14374	556.09845	564.63269	-328.46899	617.54565	601.59857	-320.36838	556.17682	598.37622	-324.51419	487.74710	585.11542	-324.88901	495.02316	470.12259	-420.81738	307.97552	596.97064	-418.18591	260.97168	599.28741	-361.54568	303.34927	615.54553	-368.06088	260.56409	615.85022	-375.78806	101.94212	602.35590	-354.18561	101.17942	523.79205	-441.87927	64.01974	556.93182	-233.87364	41.71342	542.34814	-210.47598	67.47649	589.15979	-270.88394	38.58501	646.50531
